<svg width="68" height="75" viewBox="0 0 68 75" fill="none" xmlns="http://www.w3.org/2000/svg">
<path fill-rule="evenodd" clip-rule="evenodd" d="M12.6294 1.15378C13.2693 0.420578 14.1938 0 15.1656 0H53.9221C54.9829 0 55.9818 0.500697 56.6184 1.35148L66.7102 14.8415C67.119 15.3767 67.3714 16.0381 67.4001 16.7573C67.4021 16.8097 67.4029 16.8622 67.4025 16.9147V64.1945C67.4025 69.7924 62.8759 74.3305 57.2921 74.3305H10.1104C4.52659 74.3305 0 69.7924 0 64.1945V16.894C0 16.0336 0.320778 15.2477 0.848977 14.6512L12.6294 1.15378ZM52.2369 6.75732L57.2921 13.5147H10.7972L16.6949 6.75732H52.2369ZM6.74028 20.272H60.6625V64.1945C60.6625 66.0607 59.1537 67.5734 57.2921 67.5734H10.1104C8.24911 67.5734 6.74028 66.0607 6.74028 64.1945V20.272Z" fill="#404040" fill-opacity="0.4"/>
</svg>
