<svg width="72" height="71" viewBox="0 0 72 71" fill="none" xmlns="http://www.w3.org/2000/svg">
<path d="M39.1261 15.3701C38.8144 15.3144 37.3119 15.062 35.5511 15.062C33.7902 15.062 32.2877 15.3132 31.976 15.3701C31.7971 15.4021 31.7284 15.2267 31.8647 15.1248C31.9879 15.0336 35.5499 12.3224 35.5499 12.3224L39.2339 15.1248C39.3726 15.2267 39.305 15.4021 39.1261 15.3701ZM32.9714 32.9738C32.9714 32.9738 32.783 33.0413 32.7332 33.2072C33.4798 33.7808 33.994 35.0854 35.5511 35.0854C37.1081 35.0854 37.6224 33.7808 38.3677 33.2072C38.3191 33.0402 38.1307 32.9738 38.1307 32.9738C38.1307 32.9738 37.1555 33.2037 35.5511 33.2037C33.9466 33.2037 32.9714 32.9738 32.9714 32.9738ZM35.5511 30.7781C35.1186 30.7781 35.0238 30.6146 34.7287 30.6157C34.4479 30.6169 33.9028 30.8409 33.7843 31.0459C33.7926 31.1502 33.8305 31.2438 33.9063 31.3267C34.5367 31.4215 34.8211 31.7723 35.5522 31.7723C36.2834 31.7723 36.5666 31.4215 37.1982 31.3267C37.2716 31.2438 37.3119 31.1513 37.3202 31.0459C37.2029 30.8409 36.6566 30.6181 36.3746 30.6157C36.0784 30.6134 35.9824 30.7781 35.5511 30.7781ZM71.0476 37.5003C71.0026 38.35 70.9268 39.1925 70.8225 40.0255C66.7984 40.6914 65.3598 37.1058 61.2374 37.2859C61.4838 38.1604 61.6841 39.0514 61.8382 39.9615C65.2378 39.9591 66.6076 43.1372 70.39 42.6691C70.1909 43.6408 69.9516 44.5994 69.6755 45.5438C66.6846 45.8377 65.6312 42.8658 62.1699 42.9476C62.1984 43.4405 62.2138 43.9382 62.2138 44.4406L62.1996 45.2713L68.9206 47.8355C68.5687 48.7918 68.1753 49.7267 67.7463 50.6427C65.726 50.5313 65.0292 47.9398 61.9555 48.146C61.863 48.8108 61.7457 49.4672 61.6059 50.1154C64.2756 49.9282 64.8503 52.3858 66.7628 52.5848C66.2758 53.4736 65.7509 54.3386 65.1928 55.1811C64.06 54.5744 63.0776 52.7436 60.9293 52.6311C61.1497 51.9509 61.3428 51.2612 61.5064 50.5597C59.601 50.5597 57.4218 49.8168 55.5946 48.1531C56.1871 44.7807 50.9531 41.3467 50.9531 38.8773C50.9531 36.1945 52.3099 34.7098 52.3099 31.0933C52.3099 28.4093 51.0065 25.4979 49.0406 23.5084C48.6602 23.1221 48.2704 22.8092 47.8225 22.5284C49.6284 24.7632 51.0148 27.4128 51.0148 30.4818C51.0148 33.8874 49.4305 35.685 49.4305 38.8287C49.4305 41.9712 54.0281 44.6907 54.0281 47.9315C54.0281 49.2065 53.6205 50.4519 52.2767 52.8977C54.3409 54.9595 57.0296 56.084 58.7644 56.084C59.3272 56.084 59.6294 55.9122 59.8308 55.4702C60.0038 55.0887 60.1685 54.7024 60.3238 54.3125C62.1925 54.3848 63.048 56.0828 64.0825 56.7606C63.5149 57.5226 62.9188 58.2584 62.2944 58.9706C61.6012 58.2027 60.6698 56.9111 59.3059 56.5521C59.0618 57.0261 58.8035 57.4941 58.5321 57.9527C59.7064 58.2726 60.5098 59.4576 61.1319 60.2373C60.4612 60.9317 59.7633 61.5976 59.0369 62.2375C58.5831 61.5313 57.8768 60.6354 57.0853 60.152C56.7926 60.5478 56.4881 60.934 56.1741 61.3097C56.8471 61.7659 57.4408 62.5871 57.8283 63.2566C56.9893 63.9296 56.1219 64.5683 55.2237 65.1655C54.7806 61.555 49.8523 59.0808 51.1806 54.892C50.7446 55.6302 50.2244 56.5533 50.2244 57.6648C50.2244 60.6971 53.4546 63.1037 53.7117 66.1171C53.0422 66.5176 52.3573 66.8944 51.6594 67.2511C51.5432 63.9391 48.1235 60.3143 48.1235 57.596C48.1235 54.5614 52.0978 51.5136 52.0978 47.9315C52.0978 44.347 47.512 41.8657 47.512 38.7185C47.512 35.5736 49.4625 33.7642 49.4625 29.7329C49.4625 26.78 48.0595 23.7916 45.8922 21.8826C45.5083 21.5437 45.1303 21.2747 44.6764 21.0389C46.7205 23.4906 47.9054 25.7148 47.9054 29.0895C47.9054 32.8802 45.6706 34.9847 45.6706 38.696C45.6706 42.4084 50.1711 44.4726 50.1711 47.9327C50.1711 51.3928 45.9822 54.309 45.9822 57.8638C45.9822 61.0976 49.6746 64.3254 49.7291 68.1623C48.9221 68.5142 48.0998 68.8353 47.2632 69.1268C47.7324 65.2508 43.5768 61.2528 43.5768 58.0902C43.5768 54.6324 47.922 51.6606 47.922 47.9327C47.922 44.2025 43.5045 42.4689 43.5045 38.6403C43.5045 34.814 46.2145 32.6953 46.2145 28.4674C46.2145 25.172 44.5875 22.2085 42.2105 20.3718L42.06 20.258C41.8361 20.0921 41.6512 20.2924 41.81 20.4891C43.4926 22.59 44.392 24.7147 44.392 27.8607C44.392 31.7284 41.2791 34.8709 41.2791 38.6178C41.2791 43.04 45.4597 44.3044 45.4597 47.9327C45.4597 51.5599 40.977 54.4618 40.977 58.3129C40.977 61.8844 45.2191 65.8481 44.4916 69.9705C43.6408 70.1909 42.7781 70.3829 41.9024 70.5393C42.6987 65.4061 38.5372 61.7197 38.5372 58.3615C38.5372 54.7261 43.1798 51.4852 43.1798 47.9327C43.1798 44.5816 39.8477 43.4867 39.4093 40.0587C39.3489 39.5906 38.9732 39.2434 38.4554 39.3299C37.7788 39.4531 36.9114 39.8987 35.5487 39.8987C34.186 39.8987 33.3186 39.452 32.6408 39.3299C32.1242 39.2446 31.7485 39.5918 31.6881 40.0587C31.2509 43.4867 27.9164 44.5805 27.9164 47.9327C27.9164 51.4852 32.5602 54.7249 32.5602 58.3615C32.5602 61.7197 28.3987 65.4061 29.1938 70.5393C28.3193 70.3817 27.4554 70.1898 26.6046 69.9705C25.8771 65.8481 30.1204 61.8844 30.1204 58.3129C30.1204 54.4618 25.6365 51.5599 25.6365 47.9327C25.6365 44.3044 29.8182 43.04 29.8182 38.6178C29.8182 34.8709 26.7042 31.7296 26.7042 27.8607C26.7042 24.7158 27.6036 22.5912 29.2874 20.4891C29.445 20.2924 29.2613 20.0921 29.0362 20.258L28.8869 20.3718C26.5122 22.2037 24.8864 25.1673 24.8864 28.4627C24.8864 32.6906 27.5964 34.8093 27.5964 38.6355C27.5964 42.4629 23.1789 44.1965 23.1789 47.928C23.1789 51.6558 27.5242 54.6277 27.5242 58.0854C27.5242 61.2492 23.3685 65.2461 23.8389 69.1221C23.0012 68.8306 22.1788 68.5083 21.3719 68.1575C21.4276 64.3207 25.1175 61.0916 25.1175 57.8591C25.1175 54.3042 20.9311 51.388 20.9311 47.928C20.9311 44.4679 25.4292 42.4037 25.4292 38.6912C25.4292 34.9799 23.1955 32.8755 23.1955 29.0848C23.1955 25.71 24.3793 23.4859 26.4233 21.0342C25.9683 21.27 25.5915 21.539 25.2088 21.8779C23.0415 23.7868 21.6397 26.7753 21.6397 29.7282C21.6397 33.7594 23.5901 35.5689 23.5901 38.7137C23.5901 41.861 19.0043 44.3423 19.0043 47.9268C19.0043 51.5089 22.9787 54.5578 22.9787 57.5913C22.9787 60.3108 19.5565 63.9355 19.4416 67.2463C18.7436 66.8896 18.0587 66.5128 17.3892 66.1123C17.6475 63.099 20.8766 60.6923 20.8766 57.66C20.8766 56.5485 20.3575 55.6254 19.9203 54.8872C21.2486 59.076 16.3204 61.5502 15.8772 65.1608C14.979 64.5636 14.1104 63.9249 13.2727 63.2518C13.659 62.5835 14.2526 61.7612 14.9269 61.3049C14.6117 60.9305 14.3083 60.543 14.0157 60.1472C13.2229 60.6307 12.5155 61.5265 12.0628 62.2328C11.3388 61.5941 10.6397 60.9269 9.96902 60.2326C10.5911 59.4529 11.3945 58.2679 12.5688 57.948C12.2975 57.4894 12.0391 57.0225 11.795 56.5473C10.4312 56.9064 9.49859 58.198 8.80658 58.9658C8.18211 58.2525 7.58489 57.5166 7.01848 56.7559C8.05295 56.0781 8.90849 54.3789 10.776 54.3078C10.9324 54.6964 11.0971 55.0827 11.2701 55.4655C11.4715 55.9075 11.7749 56.0793 12.3366 56.0793C14.0713 56.0793 16.7588 54.9548 18.8242 52.8929C17.4805 50.4472 17.0728 49.2018 17.0728 47.9268C17.0728 44.6871 21.6705 41.9676 21.6705 38.8239C21.6705 35.6802 20.0862 33.8827 20.0862 30.4771C20.0862 27.4081 21.4726 24.7585 23.2785 22.5237C22.8305 22.8045 22.4407 23.1173 22.0603 23.5036C20.0945 25.4944 18.791 28.4046 18.791 31.0885C18.791 34.705 20.149 36.1898 20.149 38.8725C20.149 41.342 14.9138 44.776 15.5063 48.1484C13.6791 49.812 11.5 50.555 9.59339 50.555C9.75928 51.2565 9.95243 51.9462 10.1705 52.6263C8.02332 52.7401 7.04099 54.5708 5.90699 55.1763C5.34769 54.3338 4.82394 53.4688 4.33692 52.5801C6.24826 52.381 6.82414 49.9234 9.49504 50.1106C9.35521 49.4625 9.23672 48.8048 9.14429 48.1413C6.07051 47.9351 5.37376 50.5278 3.35341 50.638C2.92445 49.722 2.53104 48.7871 2.17911 47.8308L8.90138 45.2665L8.88716 44.4359C8.88716 43.9335 8.90256 43.4358 8.92981 42.9428C5.46855 42.8623 4.41513 45.833 1.4243 45.5391C1.14938 44.5947 0.908839 43.6372 0.710951 42.6644C4.49096 43.1324 5.86196 39.9544 9.26279 39.9568C9.41683 39.0467 9.61709 38.1556 9.86238 37.2811C5.73991 37.1022 4.30137 40.6879 0.278441 40.0207C0.17298 39.1877 0.0983278 38.3452 0.0532994 37.4956C4.73033 38.0182 6.48406 34.173 10.7428 34.6434C11.1445 33.6255 11.6114 32.6408 12.1375 31.6929C6.79808 30.7544 4.98509 35.2193 0.0153809 34.5332C0.552167 15.3713 16.2564 0 35.5511 0C54.8457 0 70.55 15.3713 71.0867 34.5379C66.1158 35.224 64.3029 30.7603 58.9646 31.6976C59.4896 32.6456 59.9564 33.6303 60.3593 34.6481C64.6157 34.1765 66.3694 38.0229 71.0476 37.5003ZM20.2699 22.59C17.6523 21.52 14.4837 21.7665 11.7773 23.5048C11.3578 20.9868 9.99154 18.7496 8.04584 17.3999C7.77685 17.2139 7.4972 17.3904 7.52209 17.7021C7.93327 23.0225 4.82275 27.6427 0.99771 31.7035C4.94006 32.8885 8.29586 27.8121 13.409 29.5836C15.2433 26.8523 17.5729 24.4788 20.2699 22.59ZM35.5511 19.3717C32.251 19.3717 29.4865 21.238 28.7624 23.6494C28.7068 23.8342 28.7826 23.9539 28.9959 23.8579C29.5895 23.5913 30.265 23.4633 30.9985 23.4633C32.3446 23.4633 33.5307 23.9575 34.2322 24.8177C34.5427 25.8415 34.5687 27.3239 34.218 28.17C33.6634 28.0456 33.4644 27.6166 32.9228 27.6166C32.3813 27.6166 31.9618 27.997 31.0435 27.997C30.1263 27.997 30.0185 27.5633 29.4154 27.5633C28.7056 27.5633 28.5752 28.2944 28.5752 29.1191C28.5752 32.7961 31.9547 37.8558 35.5499 37.8558C39.1439 37.8558 42.5233 32.7961 42.5233 29.1191C42.5233 28.2944 42.3539 27.5882 41.6121 27.4922C41.2424 27.7588 40.9023 27.997 40.0563 27.997C39.1379 27.997 38.8843 27.6166 38.344 27.6166C37.6911 27.6166 37.7563 28.9935 36.9813 29.0706C36.4647 27.8287 36.4398 26.2361 36.8687 24.8177C37.5714 23.9575 38.7564 23.4633 40.1025 23.4633C40.836 23.4633 41.5161 23.5925 42.1039 23.8579C42.3184 23.9539 42.393 23.833 42.3373 23.6494C41.6145 21.238 38.8512 19.3717 35.5511 19.3717ZM40.8052 24.6471C40.0136 24.6471 39.0858 24.89 38.5028 25.5394C38.4424 25.7159 38.4424 25.979 38.5277 26.1544C39.9627 25.6626 41.2282 25.6437 41.8396 26.3274C42.1655 26.0311 42.2698 25.7645 42.2698 25.4552C42.2698 24.9777 41.7839 24.6471 40.8052 24.6471ZM29.2625 26.3274C29.9545 25.6342 31.4132 25.6638 32.9288 26.2231C32.9951 25.4695 31.6454 24.6459 30.297 24.6459C29.317 24.6459 28.8324 24.9765 28.8324 25.4552C28.8324 25.7645 28.9366 26.0323 29.2625 26.3274ZM52.0066 13.8806C49.4008 14.0666 47.1376 14.9613 45.3068 16.4519C46.0841 14.2479 47.0712 12.32 48.3225 10.4513C45.0047 10.8033 42.2307 12.0167 40.2068 14.0903L38.6225 9.93705L42.1394 6.83128L37.4304 6.4983L35.5511 2.1187L33.6705 6.4983L28.9615 6.83128L32.4785 9.93705L30.8954 14.0903C28.8703 12.0167 26.0963 10.8033 22.7808 10.4513C24.0297 12.3212 25.0168 14.2491 25.7941 16.4519C23.9646 14.9601 21.7013 14.0654 19.0956 13.8806C20.6585 15.8903 22.0437 18.0327 23.0699 20.3362C23.186 20.5957 23.4349 20.6811 23.7039 20.5472C27.273 18.7733 31.2947 17.7755 35.5499 17.7755C39.8051 17.7755 43.8256 18.7745 47.3971 20.5472C47.6661 20.6811 47.9149 20.5957 48.0298 20.3362C49.0572 18.0327 50.4424 15.8903 52.0066 13.8806ZM57.6955 29.586C62.8063 27.8145 66.1632 32.8897 70.1056 31.7059C66.2806 27.6451 63.1712 23.0249 63.5824 17.7044C63.6073 17.3928 63.3265 17.2151 63.0587 17.4023C61.1118 18.7519 59.7455 20.9891 59.3272 23.5072C56.6196 21.7688 53.4522 21.5212 50.8346 22.5924C53.528 24.4788 55.8589 26.8523 57.6955 29.586Z" fill="#006341"/>
</svg>
